<svg xmlns="http://www.w3.org/2000/svg" viewBox="0 0 500 120">
  <!-- Avatar Set: Cute Cat (v1.3: Resized Face, Reverted Whiskers) -->
  
  <!-- 1. IDLE (Blue/Gray) -->
  <g transform="translate(50, 50)">
    <g transform="scale(0.9)">
      <path d="M-30 -15 Q-48 -55 -10 -25 Z" fill="#1E1E1E" stroke="#90A4AE" stroke-width="3" />
      <path d="M30 -15 Q48 -55 10 -25 Z" fill="#1E1E1E" stroke="#90A4AE" stroke-width="3" />
      <ellipse cx="0" cy="5" rx="42" ry="32" fill="#1E1E1E" stroke="#90A4AE" stroke-width="3" />
      <g fill="none" stroke="#90A4AE" stroke-width="3" stroke-linecap="round">
        <circle cx="-14" cy="0" r="4" fill="#90A4AE" stroke="none" />
        <circle cx="14" cy="0" r="4" fill="#90A4AE" stroke="none" />
        <path d="M-8 18 Q-4 24 0 18 Q4 24 8 18" />
        <path d="M-35 10 L-55 5 M-35 20 L-55 20 M35 10 L55 5 M35 20 L55 20" stroke-width="2.5" opacity="0.6" />
      </g>
    </g>
    <text x="0" y="65" font-family="sans-serif" font-size="10" fill="#90A4AE" text-anchor="middle">IDLE</text>
  </g>

  <!-- 2. YES (Mint Green) -->
  <g transform="translate(150, 50)">
    <g transform="scale(0.9)">
      <path d="M-30 -15 Q-48 -55 -10 -25 Z" fill="#1E1E1E" stroke="#66BB6A" stroke-width="3" />
      <path d="M30 -15 Q48 -55 10 -25 Z" fill="#1E1E1E" stroke="#66BB6A" stroke-width="3" />
      <ellipse cx="0" cy="5" rx="42" ry="32" fill="#1E1E1E" stroke="#66BB6A" stroke-width="3" />
      <g fill="none" stroke="#66BB6A" stroke-width="3" stroke-linecap="round" stroke-linejoin="round">
        <path d="M-24 -8 L-14 0 L-24 8" />
        <path d="M 24 -8 L 14 0 L 24 8" />
        <path d="M-10 18 Q0 28 10 18" />
        <path d="M-35 5 L-55 0 M-35 15 L-55 15 M35 5 L55 0 M35 15 L55 15" stroke-width="2.5" opacity="0.8" />
      </g>
    </g>
    <text x="0" y="65" font-family="sans-serif" font-size="10" fill="#66BB6A" text-anchor="middle">YES</text>
  </g>

  <!-- 3. NO (Coral Red) -->
  <g transform="translate(250, 50)">
    <g transform="scale(0.9)">
      <path d="M-35 -10 Q-55 -30 -15 -25 Z" fill="#1E1E1E" stroke="#EF5350" stroke-width="3" />
      <path d="M35 -10 Q55 -30 15 -25 Z" fill="#1E1E1E" stroke="#EF5350" stroke-width="3" />
      <ellipse cx="0" cy="5" rx="42" ry="32" fill="#1E1E1E" stroke="#EF5350" stroke-width="3" />
      <g fill="none" stroke="#EF5350" stroke-width="3" stroke-linecap="round">
        <path d="M-20 -5 L-5 0" />
        <path d="M20 -5 L5 0" />
        <path d="M-10 25 Q0 15 10 25" />
        <path d="M-35 25 L-55 30 M35 25 L55 30" stroke-width="2.5" opacity="0.8" />
      </g>
    </g>
    <text x="0" y="65" font-family="sans-serif" font-size="10" fill="#EF5350" text-anchor="middle">NO</text>
  </g>

  <!-- 4. LOST (Amber) -->
  <g transform="translate(350, 50)">
    <g transform="scale(0.9)">
      <path d="M-30 -15 Q-48 -55 -10 -25 Z" fill="#1E1E1E" stroke="#FFA726" stroke-width="3" stroke-dasharray="6 4" />
      <path d="M30 -15 Q48 -55 10 -25 Z" fill="#1E1E1E" stroke="#FFA726" stroke-width="3" stroke-dasharray="6 4" />
      <ellipse cx="0" cy="5" rx="42" ry="32" fill="#1E1E1E" stroke="#FFA726" stroke-width="3" stroke-dasharray="6 4" />
      <g fill="none" stroke="#FFA726" stroke-width="3" stroke-linecap="round">
        <circle cx="-14" cy="0" r="6" stroke-width="3" />
        <circle cx="14" cy="0" r="6" stroke-width="3" />
        <path d="M-5 25 Q0 30 5 25" />
      </g>
    </g>
    <text x="0" y="65" font-family="sans-serif" font-size="10" fill="#FFA726" text-anchor="middle">LOST</text>
  </g>

  <!-- 5. PAUSE (Gray) -->
  <g transform="translate(450, 50)">
    <g transform="scale(0.9)">
      <path d="M-30 -15 Q-48 -55 -10 -25 Z" fill="#1E1E1E" stroke="#777777" stroke-width="3" />
      <path d="M30 -15 Q48 -55 10 -25 Z" fill="#1E1E1E" stroke="#777777" stroke-width="3" />
      <ellipse cx="0" cy="5" rx="42" ry="32" fill="#1E1E1E" stroke="#777777" stroke-width="3" />
      <g fill="none" stroke="#777777" stroke-width="3" stroke-linecap="round">
        <path d="M-22 0 L-10 0" />
        <path d="M10 0 L22 0" />
        <line x1="-5" y1="25" x2="5" y2="25" />
        <text x="25" y="-15" font-family="sans-serif" font-weight="bold" font-size="12" fill="#777777" stroke="none">Z</text>
      </g>
    </g>
    <text x="0" y="65" font-family="sans-serif" font-size="10" fill="#777777" text-anchor="middle">PAUSE</text>
  </g>
</svg>
