<svg xmlns="http://www.w3.org/2000/svg" viewBox="0 0 200 260">
  <!-- Main Widget Gadget (Hero Display Mode) -->
  <rect x="0" y="0" width="200" height="260" rx="40" ry="40" fill="#1E1E1E" fill-opacity="0.85" stroke="#FFFFFF" stroke-opacity="0.1" stroke-width="1.5" />
  <g transform="translate(100, 105)">
    <circle cx="0" cy="0" r="88" fill="none" stroke="#FFFFFF" stroke-opacity="0.05" stroke-width="5" />
    <path d="M0 -88 A88 88 0 0 1 75 45" fill="none" stroke="#42A5F5" stroke-width="6" stroke-linecap="round" filter="drop-shadow(0 0 4px #42A5F5)" />
    <circle cx="0" cy="0" r="82" fill="#111111" fill-opacity="0.95" />
    <g opacity="0.95">
      <circle cx="0" cy="0" r="60" fill="none" stroke="#FFFFFF" stroke-width="4" />
      <circle cx="-22" cy="-10" r="6" fill="#FFFFFF" />
      <circle cx="22" cy="-10" r="6" fill="#FFFFFF" />
      <path d="M-28 25 Q0 45 28 25" fill="none" stroke="#FFFFFF" stroke-width="4" stroke-linecap="round" />
    </g>
  </g>
  <g transform="translate(160, 180)">
    <circle cx="0" cy="0" r="32" fill="#1E1E1E" stroke="#1E1E1E" stroke-width="6" />
    <defs><clipPath id="pipViewIdle"><circle cx="0" cy="0" r="30" /></clipPath></defs>
    <circle cx="0" cy="0" r="30" fill="#333333" />
    <g clip-path="url(#pipViewIdle)" opacity="0.5">
       <rect x="-35" y="-35" width="70" height="70" fill="#444444" />
       <circle cx="0" cy="-5" r="14" fill="#FFFFFF" />
       <path d="M-18 32 Q0 15 18 32" fill="#FFFFFF" />
    </g>
  </g>
  <rect x="65" y="205" width="70" height="22" rx="11" ry="11" fill="#000000" fill-opacity="0.6" />
  <text x="100" y="220" font-family="sans-serif" font-weight="bold" font-size="10" fill="#FFFFFF" text-anchor="middle" letter-spacing="2">LISTENING</text>
  <g transform="translate(45, 235)">
    <circle cx="0" cy="0" r="18" fill="#FFFFFF" fill-opacity="0.08" />
    <g transform="translate(-8, -8) scale(0.7)">
      <path d="M12 2 L12 14 M5 10 A7 7 0 0 0 19 10" stroke="#FFFFFF" stroke-width="2.5" stroke-linecap="round" fill="none" />
      <line x1="4" y1="4" x2="20" y2="20" stroke="#EF5350" stroke-width="2.5" />
    </g>
  </g>
  <g transform="translate(155, 235)">
    <circle cx="0" cy="0" r="18" fill="#FFFFFF" fill-opacity="0.08" />
    <g transform="translate(-8, -8) scale(0.7)">
      <circle cx="12" cy="12" r="4" stroke="#FFFFFF" stroke-width="2.5" fill="none" />
      <path d="M12 2 L12 6 M12 18 L12 22 M2 12 L6 12 M18 12 L22 12" stroke="#FFFFFF" stroke-width="2.5" stroke-linecap="round" />
    </g>
  </g>
</svg>
