<svg xmlns="http://www.w3.org/2000/svg" viewBox="0 0 200 260">
  <rect x="0" y="0" width="200" height="260" rx="40" ry="40" fill="#1E1E1E" fill-opacity="0.85" stroke="#FFA726" stroke-opacity="0.5" stroke-width="2" />
  <g transform="translate(100, 105)">
    <circle cx="0" cy="0" r="88" fill="none" stroke="#FFA726" stroke-width="3" stroke-dasharray="10 10" stroke-linecap="round" />
    <circle cx="0" cy="0" r="82" fill="#111111" fill-opacity="0.95" />
    <g opacity="0.8">
      <circle cx="0" cy="0" r="60" fill="none" stroke="#FFFFFF" stroke-width="3" />
      <path d="M-22 -8 L-14 0 M-14 -8 L-22 0" stroke="#FFFFFF" stroke-width="3" stroke-linecap="round" />
      <path d="M22 -8 L14 0 M14 -8 L22 0" stroke="#FFFFFF" stroke-width="3" stroke-linecap="round" />
      <line x1="-15" y1="25" x2="15" y2="25" stroke="#FFFFFF" stroke-width="3" stroke-linecap="round" />
    </g>
  </g>
  <g transform="translate(160, 180)">
    <circle cx="0" cy="0" r="32" fill="#1E1E1E" stroke="#FFA726" stroke-opacity="0.3" stroke-width="3" />
    <circle cx="0" cy="0" r="30" fill="#222222" />
    <text x="0" y="4" font-family="sans-serif" font-size="14" fill="#FFFFFF" fill-opacity="0.3" text-anchor="middle">?</text>
  </g>
  <rect x="55" y="205" width="90" height="22" rx="11" ry="11" fill="#FFA726" />
  <text x="100" y="220" font-family="sans-serif" font-weight="bold" font-size="10" fill="#333333" text-anchor="middle" letter-spacing="1">LOOK HERE</text>
  <g transform="translate(45, 235)" opacity="0.6"><circle cx="0" cy="0" r="18" fill="#FFFFFF" fill-opacity="0.1" /></g>
  <g transform="translate(155, 235)" opacity="0.6"><circle cx="0" cy="0" r="18" fill="#FFFFFF" fill-opacity="0.1" /></g>
</svg>
