<svg xmlns="http://www.w3.org/2000/svg" viewBox="-10 -10 220 280">
  <rect x="0" y="0" width="200" height="260" rx="40" ry="40" fill="#1E1E1E" fill-opacity="0.85" stroke="#EF5350" stroke-opacity="0.5" stroke-width="2" />
  <rect x="-5" y="-5" width="210" height="270" rx="45" ry="45" fill="none" stroke="#EF5350" stroke-opacity="0.2" stroke-width="15" filter="blur(10px)" />
  <g transform="translate(100, 105)">
    <circle cx="0" cy="0" r="88" fill="none" stroke="#EF5350" stroke-width="6" stroke-linecap="round" filter="drop-shadow(0 0 6px #EF5350)" />
    <circle cx="0" cy="0" r="82" fill="#111111" fill-opacity="0.95" />
    <g opacity="1.0">
      <circle cx="0" cy="0" r="60" fill="none" stroke="#FFFFFF" stroke-width="5" />
      <path d="M-30 -15 Q-22 0 -14 -15" fill="none" stroke="#FFFFFF" stroke-width="5" stroke-linecap="round" />
      <path d="M14 -15 Q22 0 30 -15" fill="none" stroke="#FFFFFF" stroke-width="5" stroke-linecap="round" />
      <path d="M-28 35 Q0 15 28 35" fill="none" stroke="#FFFFFF" stroke-width="5" stroke-linecap="round" />
    </g>
  </g>
  <g transform="translate(160, 180)">
    <circle cx="0" cy="0" r="32" fill="#1E1E1E" stroke="#EF5350" stroke-opacity="0.4" stroke-width="4" />
    <defs><clipPath id="pipV9No"><circle cx="0" cy="0" r="30" /></clipPath></defs>
    <circle cx="0" cy="0" r="30" fill="#333333" />
    <g clip-path="url(#pipV9No)" opacity="0.6">
       <rect x="-35" y="-35" width="70" height="70" fill="#EF5350" fill-opacity="0.2" />
       <circle cx="0" cy="-5" r="14" fill="#FFFFFF" />
       <path d="M-18 32 Q0 15 18 32" fill="#FFFFFF" />
    </g>
  </g>
  <rect x="50" y="205" width="100" height="24" rx="12" ry="12" fill="#EF5350" />
  <text x="100" y="221" font-family="sans-serif" font-weight="bold" font-size="11" fill="#FFFFFF" text-anchor="middle" letter-spacing="2">NO SENT!</text>
  <g transform="translate(45, 235)" opacity="0.6"><circle cx="0" cy="0" r="18" fill="#FFFFFF" fill-opacity="0.1" /></g>
  <g transform="translate(155, 235)" opacity="0.6"><circle cx="0" cy="0" r="18" fill="#FFFFFF" fill-opacity="0.1" /></g>
</svg>
