<svg xmlns="http://www.w3.org/2000/svg" viewBox="0 0 200 260">
  <rect x="0" y="0" width="200" height="260" rx="40" ry="40" fill="#1E1E1E" fill-opacity="0.9" stroke="#90A4AE" stroke-opacity="0.2" stroke-width="1.5" />
  <g transform="translate(100, 105)">
    <circle cx="0" cy="0" r="88" fill="none" stroke="#FFFFFF" stroke-opacity="0.05" stroke-width="2" />
    <circle cx="0" cy="0" r="82" fill="#111111" fill-opacity="0.95" />
    <g opacity="0.6">
      <circle cx="0" cy="0" r="60" fill="none" stroke="#FFFFFF" stroke-width="3" />
      <path d="M-28 -5 Q-20 5 -12 -5" fill="none" stroke="#FFFFFF" stroke-width="3" stroke-linecap="round" />
      <path d="M12 -5 Q20 5 28 -5" fill="none" stroke="#FFFFFF" stroke-width="3" stroke-linecap="round" />
      <circle cx="0" cy="25" r="5" fill="none" stroke="#FFFFFF" stroke-width="3" />
      <text x="35" y="-30" font-family="sans-serif" font-weight="bold" font-size="14" fill="#FFFFFF">Z</text>
      <text x="45" y="-45" font-family="sans-serif" font-weight="bold" font-size="10" fill="#FFFFFF">z</text>
    </g>
  </g>
  <g transform="translate(160, 180)">
    <circle cx="0" cy="0" r="32" fill="#1E1E1E" stroke="#555555" stroke-width="3" />
    <circle cx="0" cy="0" r="30" fill="#222222" />
    <path d="M-8 -8 L8 8 M8 -8 L-8 8" stroke="#555555" stroke-width="2" />
  </g>
  <rect x="65" y="205" width="70" height="22" rx="11" ry="11" fill="#555555" />
  <text x="100" y="220" font-family="sans-serif" font-weight="bold" font-size="10" fill="#FFFFFF" fill-opacity="0.8" text-anchor="middle" letter-spacing="2">PAUSED</text>
  <g transform="translate(45, 235)">
    <circle cx="0" cy="0" r="18" fill="#EF5350" />
    <g transform="translate(-8, -8) scale(0.7)">
      <path d="M12 2 L12 14 M5 10 A7 7 0 0 0 19 10" stroke="#FFFFFF" stroke-width="2.5" stroke-linecap="round" fill="none" />
      <line x1="4" y1="4" x2="20" y2="20" stroke="#FFFFFF" stroke-width="2.5" />
    </g>
  </g>
  <g transform="translate(155, 235)" opacity="0.6"><circle cx="0" cy="0" r="18" fill="#FFFFFF" fill-opacity="0.1" /></g>
</svg>
